<svg xmlns="http://www.w3.org/2000/svg" version="1.1" xmlns:xlink="http://www.w3.org/1999/xlink" xmlns:svgjs="http://svgjs.com/svgjs" width="1440" height="560" preserveAspectRatio="none" viewBox="0 0 1440 560"><g mask="url(&quot;#SvgjsMask1496&quot;)" fill="none"><rect width="1440" height="560" x="0" y="0" fill="url(#SvgjsLinearGradient1497)"></rect><path d="M-93.44 409.34L-93.44 409.34" stroke="rgba(19, 80, 101, 1)" stroke-width="1.5"></path><path d="M-93.44 409.34L-106.35 561.59" stroke="rgba(19, 80, 101, 1)" stroke-width="1.5"></path><path d="M-93.44 409.34L42.69 523.57" stroke="rgba(19, 80, 101, 1)" stroke-width="1.5"></path><path d="M-93.44 409.34L107.53 337.87" stroke="rgba(19, 80, 101, 1)" stroke-width="1.5"></path><path d="M-93.44 409.34L-84.78 654.23" stroke="rgba(19, 80, 101, 1)" stroke-width="1.5"></path><path d="M-106.35 561.59L-106.35 561.59" stroke="rgba(19, 80, 101, 1)" stroke-width="1.5"></path><path d="M-106.35 561.59L-84.78 654.23" stroke="rgba(19, 80, 101, 1)" stroke-width="1.5"></path><path d="M-84.78 654.23L-84.78 654.23" stroke="rgba(19, 80, 101, 1)" stroke-width="1.5"></path><path d="M-84.78 654.23L42.69 523.57" stroke="rgba(19, 80, 101, 1)" stroke-width="1.5"></path><path d="M-84.78 654.23L235.85 533.79" stroke="rgba(19, 80, 101, 1)" stroke-width="1.5"></path><path d="M-84.78 654.23L107.53 337.87" stroke="rgba(19, 80, 101, 1)" stroke-width="1.5"></path><path d="M107.53 337.87L107.53 337.87" stroke="rgba(19, 80, 101, 1)" stroke-width="1.5"></path><path d="M107.53 337.87L199.07 378.07" stroke="rgba(19, 80, 101, 1)" stroke-width="1.5"></path><path d="M107.53 337.87L42.69 523.57" stroke="rgba(19, 80, 101, 1)" stroke-width="1.5"></path><path d="M42.69 523.57L42.69 523.57" stroke="rgba(19, 80, 101, 1)" stroke-width="1.5"></path><path d="M42.69 523.57L-106.35 561.59" stroke="rgba(19, 80, 101, 1)" stroke-width="1.5"></path><path d="M42.69 523.57L235.85 533.79" stroke="rgba(19, 80, 101, 1)" stroke-width="1.5"></path><path d="M42.69 523.57L199.07 378.07" stroke="rgba(19, 80, 101, 1)" stroke-width="1.5"></path><path d="M199.07 378.07L199.07 378.07" stroke="rgba(19, 80, 101, 1)" stroke-width="1.5"></path><path d="M199.07 378.07L235.85 533.79" stroke="rgba(19, 80, 101, 1)" stroke-width="1.5"></path><path d="M199.07 378.07L389.11 340.99" stroke="rgba(19, 80, 101, 1)" stroke-width="1.5"></path><path d="M199.07 378.07L361.33 495.85" stroke="rgba(19, 80, 101, 1)" stroke-width="1.5"></path><path d="M235.85 533.79L235.85 533.79" stroke="rgba(19, 80, 101, 1)" stroke-width="1.5"></path><path d="M235.85 533.79L361.33 495.85" stroke="rgba(19, 80, 101, 1)" stroke-width="1.5"></path><path d="M235.85 533.79L345.37 709.64" stroke="rgba(19, 80, 101, 1)" stroke-width="1.5"></path><path d="M235.85 533.79L107.53 337.87" stroke="rgba(19, 80, 101, 1)" stroke-width="1.5"></path><path d="M235.85 533.79L389.11 340.99" stroke="rgba(19, 80, 101, 1)" stroke-width="1.5"></path><path d="M389.11 340.99L389.11 340.99" stroke="rgba(19, 80, 101, 1)" stroke-width="1.5"></path><path d="M389.11 340.99L515.3 358.58" stroke="rgba(19, 80, 101, 1)" stroke-width="1.5"></path><path d="M389.11 340.99L361.33 495.85" stroke="rgba(19, 80, 101, 1)" stroke-width="1.5"></path><path d="M361.33 495.85L361.33 495.85" stroke="rgba(19, 80, 101, 1)" stroke-width="1.5"></path><path d="M345.37 709.64L345.37 709.64" stroke="rgba(19, 80, 101, 1)" stroke-width="1.5"></path><path d="M345.37 709.64L545.6 662.03" stroke="rgba(19, 80, 101, 1)" stroke-width="1.5"></path><path d="M345.37 709.64L361.33 495.85" stroke="rgba(19, 80, 101, 1)" stroke-width="1.5"></path><path d="M345.37 709.64L512.99 542.86" stroke="rgba(19, 80, 101, 1)" stroke-width="1.5"></path><path d="M345.37 709.64L694.86 700.45" stroke="rgba(19, 80, 101, 1)" stroke-width="1.5"></path><path d="M345.37 709.64L42.69 523.57" stroke="rgba(19, 80, 101, 1)" stroke-width="1.5"></path><path d="M515.3 358.58L515.3 358.58" stroke="rgba(19, 80, 101, 1)" stroke-width="1.5"></path><path d="M515.3 358.58L682.28 350.83" stroke="rgba(19, 80, 101, 1)" stroke-width="1.5"></path><path d="M515.3 358.58L512.99 542.86" stroke="rgba(19, 80, 101, 1)" stroke-width="1.5"></path><path d="M515.3 358.58L361.33 495.85" stroke="rgba(19, 80, 101, 1)" stroke-width="1.5"></path><path d="M512.99 542.86L512.99 542.86" stroke="rgba(19, 80, 101, 1)" stroke-width="1.5"></path><path d="M512.99 542.86L545.6 662.03" stroke="rgba(19, 80, 101, 1)" stroke-width="1.5"></path><path d="M512.99 542.86L361.33 495.85" stroke="rgba(19, 80, 101, 1)" stroke-width="1.5"></path><path d="M512.99 542.86L684.93 514.09" stroke="rgba(19, 80, 101, 1)" stroke-width="1.5"></path><path d="M545.6 662.03L545.6 662.03" stroke="rgba(19, 80, 101, 1)" stroke-width="1.5"></path><path d="M545.6 662.03L694.86 700.45" stroke="rgba(19, 80, 101, 1)" stroke-width="1.5"></path><path d="M545.6 662.03L684.93 514.09" stroke="rgba(19, 80, 101, 1)" stroke-width="1.5"></path><path d="M682.28 350.83L682.28 350.83" stroke="rgba(19, 80, 101, 1)" stroke-width="1.5"></path><path d="M682.28 350.83L822.63 344.6" stroke="rgba(19, 80, 101, 1)" stroke-width="1.5"></path><path d="M682.28 350.83L684.93 514.09" stroke="rgba(19, 80, 101, 1)" stroke-width="1.5"></path><path d="M682.28 350.83L790.14 499.7" stroke="rgba(19, 80, 101, 1)" stroke-width="1.5"></path><path d="M682.28 350.83L829.69 235.63" stroke="rgba(19, 80, 101, 1)" stroke-width="1.5"></path><path d="M682.28 350.83L512.99 542.86" stroke="rgba(19, 80, 101, 1)" stroke-width="1.5"></path><path d="M684.93 514.09L684.93 514.09" stroke="rgba(19, 80, 101, 1)" stroke-width="1.5"></path><path d="M684.93 514.09L790.14 499.7" stroke="rgba(19, 80, 101, 1)" stroke-width="1.5"></path><path d="M694.86 700.45L694.86 700.45" stroke="rgba(19, 80, 101, 1)" stroke-width="1.5"></path><path d="M694.86 700.45L838.95 666.67" stroke="rgba(19, 80, 101, 1)" stroke-width="1.5"></path><path d="M694.86 700.45L684.93 514.09" stroke="rgba(19, 80, 101, 1)" stroke-width="1.5"></path><path d="M833.45 99.01L833.45 99.01" stroke="rgba(19, 80, 101, 1)" stroke-width="1.5"></path><path d="M833.45 99.01L829.69 235.63" stroke="rgba(19, 80, 101, 1)" stroke-width="1.5"></path><path d="M833.45 99.01L987.49 37.55" stroke="rgba(19, 80, 101, 1)" stroke-width="1.5"></path><path d="M833.45 99.01L969.28 220.73" stroke="rgba(19, 80, 101, 1)" stroke-width="1.5"></path><path d="M829.69 235.63L829.69 235.63" stroke="rgba(19, 80, 101, 1)" stroke-width="1.5"></path><path d="M829.69 235.63L822.63 344.6" stroke="rgba(19, 80, 101, 1)" stroke-width="1.5"></path><path d="M822.63 344.6L822.63 344.6" stroke="rgba(19, 80, 101, 1)" stroke-width="1.5"></path><path d="M822.63 344.6L790.14 499.7" stroke="rgba(19, 80, 101, 1)" stroke-width="1.5"></path><path d="M822.63 344.6L969.28 220.73" stroke="rgba(19, 80, 101, 1)" stroke-width="1.5"></path><path d="M790.14 499.7L790.14 499.7" stroke="rgba(19, 80, 101, 1)" stroke-width="1.5"></path><path d="M790.14 499.7L838.95 666.67" stroke="rgba(19, 80, 101, 1)" stroke-width="1.5"></path><path d="M838.95 666.67L838.95 666.67" stroke="rgba(19, 80, 101, 1)" stroke-width="1.5"></path><path d="M838.95 666.67L1005.98 665.13" stroke="rgba(19, 80, 101, 1)" stroke-width="1.5"></path><path d="M985.84 -44.92L985.84 -44.92" stroke="rgba(19, 80, 101, 1)" stroke-width="1.5"></path><path d="M985.84 -44.92L987.49 37.55" stroke="rgba(19, 80, 101, 1)" stroke-width="1.5"></path><path d="M985.84 -44.92L1116.52 -88.52" stroke="rgba(19, 80, 101, 1)" stroke-width="1.5"></path><path d="M985.84 -44.92L1152.67 41.5" stroke="rgba(19, 80, 101, 1)" stroke-width="1.5"></path><path d="M987.49 37.55L987.49 37.55" stroke="rgba(19, 80, 101, 1)" stroke-width="1.5"></path><path d="M987.49 37.55L1152.67 41.5" stroke="rgba(19, 80, 101, 1)" stroke-width="1.5"></path><path d="M987.49 37.55L1116.52 -88.52" stroke="rgba(19, 80, 101, 1)" stroke-width="1.5"></path><path d="M987.49 37.55L969.28 220.73" stroke="rgba(19, 80, 101, 1)" stroke-width="1.5"></path><path d="M969.28 220.73L969.28 220.73" stroke="rgba(19, 80, 101, 1)" stroke-width="1.5"></path><path d="M969.28 220.73L829.69 235.63" stroke="rgba(19, 80, 101, 1)" stroke-width="1.5"></path><path d="M991.18 516.99L991.18 516.99" stroke="rgba(19, 80, 101, 1)" stroke-width="1.5"></path><path d="M991.18 516.99L1098.29 557.1" stroke="rgba(19, 80, 101, 1)" stroke-width="1.5"></path><path d="M991.18 516.99L1005.98 665.13" stroke="rgba(19, 80, 101, 1)" stroke-width="1.5"></path><path d="M991.18 516.99L1094.49 658.81" stroke="rgba(19, 80, 101, 1)" stroke-width="1.5"></path><path d="M1005.98 665.13L1005.98 665.13" stroke="rgba(19, 80, 101, 1)" stroke-width="1.5"></path><path d="M1005.98 665.13L1094.49 658.81" stroke="rgba(19, 80, 101, 1)" stroke-width="1.5"></path><path d="M1116.52 -88.52L1116.52 -88.52" stroke="rgba(19, 80, 101, 1)" stroke-width="1.5"></path><path d="M1116.52 -88.52L1152.67 41.5" stroke="rgba(19, 80, 101, 1)" stroke-width="1.5"></path><path d="M1116.52 -88.52L1294.09 -63.57" stroke="rgba(19, 80, 101, 1)" stroke-width="1.5"></path><path d="M1152.67 41.5L1152.67 41.5" stroke="rgba(19, 80, 101, 1)" stroke-width="1.5"></path><path d="M1152.67 41.5L1258.82 82.7" stroke="rgba(19, 80, 101, 1)" stroke-width="1.5"></path><path d="M1152.67 41.5L1294.09 -63.57" stroke="rgba(19, 80, 101, 1)" stroke-width="1.5"></path><path d="M1155.34 219.06L1155.34 219.06" stroke="rgba(19, 80, 101, 1)" stroke-width="1.5"></path><path d="M1155.34 219.06L1266.48 253.79" stroke="rgba(19, 80, 101, 1)" stroke-width="1.5"></path><path d="M1155.34 219.06L1121.82 363.79" stroke="rgba(19, 80, 101, 1)" stroke-width="1.5"></path><path d="M1155.34 219.06L1262.17 343.82" stroke="rgba(19, 80, 101, 1)" stroke-width="1.5"></path><path d="M1155.34 219.06L1258.82 82.7" stroke="rgba(19, 80, 101, 1)" stroke-width="1.5"></path><path d="M1121.82 363.79L1121.82 363.79" stroke="rgba(19, 80, 101, 1)" stroke-width="1.5"></path><path d="M1121.82 363.79L1262.17 343.82" stroke="rgba(19, 80, 101, 1)" stroke-width="1.5"></path><path d="M1121.82 363.79L1266.48 253.79" stroke="rgba(19, 80, 101, 1)" stroke-width="1.5"></path><path d="M1098.29 557.1L1098.29 557.1" stroke="rgba(19, 80, 101, 1)" stroke-width="1.5"></path><path d="M1098.29 557.1L1094.49 658.81" stroke="rgba(19, 80, 101, 1)" stroke-width="1.5"></path><path d="M1098.29 557.1L1005.98 665.13" stroke="rgba(19, 80, 101, 1)" stroke-width="1.5"></path><path d="M1098.29 557.1L1121.82 363.79" stroke="rgba(19, 80, 101, 1)" stroke-width="1.5"></path><path d="M1094.49 658.81L1094.49 658.81" stroke="rgba(19, 80, 101, 1)" stroke-width="1.5"></path><path d="M1294.09 -63.57L1294.09 -63.57" stroke="rgba(19, 80, 101, 1)" stroke-width="1.5"></path><path d="M1294.09 -63.57L1258.82 82.7" stroke="rgba(19, 80, 101, 1)" stroke-width="1.5"></path><path d="M1258.82 82.7L1258.82 82.7" stroke="rgba(19, 80, 101, 1)" stroke-width="1.5"></path><path d="M1266.48 253.79L1266.48 253.79" stroke="rgba(19, 80, 101, 1)" stroke-width="1.5"></path><path d="M1266.48 253.79L1262.17 343.82" stroke="rgba(19, 80, 101, 1)" stroke-width="1.5"></path><path d="M1266.48 253.79L1412.9 190.73" stroke="rgba(19, 80, 101, 1)" stroke-width="1.5"></path><path d="M1266.48 253.79L1258.82 82.7" stroke="rgba(19, 80, 101, 1)" stroke-width="1.5"></path><path d="M1266.48 253.79L1428.31 382.84" stroke="rgba(19, 80, 101, 1)" stroke-width="1.5"></path><path d="M1262.17 343.82L1262.17 343.82" stroke="rgba(19, 80, 101, 1)" stroke-width="1.5"></path><path d="M1262.17 343.82L1428.31 382.84" stroke="rgba(19, 80, 101, 1)" stroke-width="1.5"></path><path d="M1262.17 343.82L1302.83 540.43" stroke="rgba(19, 80, 101, 1)" stroke-width="1.5"></path><path d="M1302.83 540.43L1302.83 540.43" stroke="rgba(19, 80, 101, 1)" stroke-width="1.5"></path><path d="M1302.83 540.43L1408.58 488.29" stroke="rgba(19, 80, 101, 1)" stroke-width="1.5"></path><path d="M1302.83 540.43L1394.42 655.63" stroke="rgba(19, 80, 101, 1)" stroke-width="1.5"></path><path d="M1304.77 711.46L1304.77 711.46" stroke="rgba(19, 80, 101, 1)" stroke-width="1.5"></path><path d="M1304.77 711.46L1394.42 655.63" stroke="rgba(19, 80, 101, 1)" stroke-width="1.5"></path><path d="M1304.77 711.46L1302.83 540.43" stroke="rgba(19, 80, 101, 1)" stroke-width="1.5"></path><path d="M1441.51 107.9L1441.51 107.9" stroke="rgba(19, 80, 101, 1)" stroke-width="1.5"></path><path d="M1441.51 107.9L1412.9 190.73" stroke="rgba(19, 80, 101, 1)" stroke-width="1.5"></path><path d="M1441.51 107.9L1555.15 67.17" stroke="rgba(19, 80, 101, 1)" stroke-width="1.5"></path><path d="M1441.51 107.9L1551.44 220.88" stroke="rgba(19, 80, 101, 1)" stroke-width="1.5"></path><path d="M1412.9 190.73L1412.9 190.73" stroke="rgba(19, 80, 101, 1)" stroke-width="1.5"></path><path d="M1412.9 190.73L1551.44 220.88" stroke="rgba(19, 80, 101, 1)" stroke-width="1.5"></path><path d="M1412.9 190.73L1258.82 82.7" stroke="rgba(19, 80, 101, 1)" stroke-width="1.5"></path><path d="M1428.31 382.84L1428.31 382.84" stroke="rgba(19, 80, 101, 1)" stroke-width="1.5"></path><path d="M1428.31 382.84L1408.58 488.29" stroke="rgba(19, 80, 101, 1)" stroke-width="1.5"></path><path d="M1428.31 382.84L1543.37 405.6" stroke="rgba(19, 80, 101, 1)" stroke-width="1.5"></path><path d="M1428.31 382.84L1412.9 190.73" stroke="rgba(19, 80, 101, 1)" stroke-width="1.5"></path><path d="M1428.31 382.84L1302.83 540.43" stroke="rgba(19, 80, 101, 1)" stroke-width="1.5"></path><path d="M1408.58 488.29L1408.58 488.29" stroke="rgba(19, 80, 101, 1)" stroke-width="1.5"></path><path d="M1408.58 488.29L1543.37 405.6" stroke="rgba(19, 80, 101, 1)" stroke-width="1.5"></path><path d="M1408.58 488.29L1394.42 655.63" stroke="rgba(19, 80, 101, 1)" stroke-width="1.5"></path><path d="M1408.58 488.29L1594.68 513.12" stroke="rgba(19, 80, 101, 1)" stroke-width="1.5"></path><path d="M1408.58 488.29L1262.17 343.82" stroke="rgba(19, 80, 101, 1)" stroke-width="1.5"></path><path d="M1394.42 655.63L1394.42 655.63" stroke="rgba(19, 80, 101, 1)" stroke-width="1.5"></path><path d="M1394.42 655.63L1572.18 693.79" stroke="rgba(19, 80, 101, 1)" stroke-width="1.5"></path><path d="M1394.42 655.63L1594.68 513.12" stroke="rgba(19, 80, 101, 1)" stroke-width="1.5"></path><path d="M1579.76 -99.6L1579.76 -99.6" stroke="rgba(19, 80, 101, 1)" stroke-width="1.5"></path><path d="M1579.76 -99.6L1555.15 67.17" stroke="rgba(19, 80, 101, 1)" stroke-width="1.5"></path><path d="M1579.76 -99.6L1441.51 107.9" stroke="rgba(19, 80, 101, 1)" stroke-width="1.5"></path><path d="M1579.76 -99.6L1294.09 -63.57" stroke="rgba(19, 80, 101, 1)" stroke-width="1.5"></path><path d="M1579.76 -99.6L1551.44 220.88" stroke="rgba(19, 80, 101, 1)" stroke-width="1.5"></path><path d="M1555.15 67.17L1555.15 67.17" stroke="rgba(19, 80, 101, 1)" stroke-width="1.5"></path><path d="M1555.15 67.17L1551.44 220.88" stroke="rgba(19, 80, 101, 1)" stroke-width="1.5"></path><path d="M1551.44 220.88L1551.44 220.88" stroke="rgba(19, 80, 101, 1)" stroke-width="1.5"></path><path d="M1543.37 405.6L1543.37 405.6" stroke="rgba(19, 80, 101, 1)" stroke-width="1.5"></path><path d="M1543.37 405.6L1594.68 513.12" stroke="rgba(19, 80, 101, 1)" stroke-width="1.5"></path><path d="M1543.37 405.6L1551.44 220.88" stroke="rgba(19, 80, 101, 1)" stroke-width="1.5"></path><path d="M1543.37 405.6L1412.9 190.73" stroke="rgba(19, 80, 101, 1)" stroke-width="1.5"></path><path d="M1543.37 405.6L1302.83 540.43" stroke="rgba(19, 80, 101, 1)" stroke-width="1.5"></path><path d="M1594.68 513.12L1594.68 513.12" stroke="rgba(19, 80, 101, 1)" stroke-width="1.5"></path><path d="M1594.68 513.12L1572.18 693.79" stroke="rgba(19, 80, 101, 1)" stroke-width="1.5"></path><path d="M1594.68 513.12L1428.31 382.84" stroke="rgba(19, 80, 101, 1)" stroke-width="1.5"></path><path d="M1594.68 513.12L1302.83 540.43" stroke="rgba(19, 80, 101, 1)" stroke-width="1.5"></path><path d="M1572.18 693.79L1572.18 693.79" stroke="rgba(19, 80, 101, 1)" stroke-width="1.5"></path><path d="M1572.18 693.79L1408.58 488.29" stroke="rgba(19, 80, 101, 1)" stroke-width="1.5"></path><path d="M1572.18 693.79L1304.77 711.46" stroke="rgba(19, 80, 101, 1)" stroke-width="1.5"></path><path d="M1572.18 693.79L1543.37 405.6" stroke="rgba(19, 80, 101, 1)" stroke-width="1.5"></path><circle r="5" cx="-93.44" cy="409.34" fill="rgba(19, 80, 101, 1)"></circle><circle r="5" cx="-106.35" cy="561.59" fill="rgba(19, 80, 101, 1)"></circle><circle r="5" cx="-84.78" cy="654.23" fill="rgba(19, 80, 101, 1)"></circle><circle r="5" cx="107.53" cy="337.87" fill="rgba(19, 80, 101, 1)"></circle><circle r="5" cx="42.69" cy="523.57" fill="rgba(19, 80, 101, 1)"></circle><circle r="5" cx="199.07" cy="378.07" fill="rgba(19, 80, 101, 1)"></circle><circle r="5" cx="235.85" cy="533.79" fill="rgba(19, 80, 101, 1)"></circle><circle r="5" cx="389.11" cy="340.99" fill="rgba(19, 80, 101, 1)"></circle><circle r="5" cx="361.33" cy="495.85" fill="rgba(19, 80, 101, 1)"></circle><circle r="5" cx="345.37" cy="709.64" fill="rgba(19, 80, 101, 1)"></circle><circle r="5" cx="515.3" cy="358.58" fill="rgba(19, 80, 101, 1)"></circle><circle r="5" cx="512.99" cy="542.86" fill="rgba(19, 80, 101, 1)"></circle><circle r="5" cx="545.6" cy="662.03" fill="rgba(19, 80, 101, 1)"></circle><circle r="5" cx="682.28" cy="350.83" fill="rgba(19, 80, 101, 1)"></circle><circle r="5" cx="684.93" cy="514.09" fill="rgba(19, 80, 101, 1)"></circle><circle r="5" cx="694.86" cy="700.45" fill="rgba(19, 80, 101, 1)"></circle><circle r="5" cx="833.45" cy="99.01" fill="rgba(19, 80, 101, 1)"></circle><circle r="5" cx="829.69" cy="235.63" fill="rgba(19, 80, 101, 1)"></circle><circle r="5" cx="822.63" cy="344.6" fill="rgba(19, 80, 101, 1)"></circle><circle r="5" cx="790.14" cy="499.7" fill="rgba(19, 80, 101, 1)"></circle><circle r="5" cx="838.95" cy="666.67" fill="rgba(19, 80, 101, 1)"></circle><circle r="5" cx="985.84" cy="-44.92" fill="rgba(19, 80, 101, 1)"></circle><circle r="5" cx="987.49" cy="37.55" fill="rgba(19, 80, 101, 1)"></circle><circle r="5" cx="969.28" cy="220.73" fill="rgba(19, 80, 101, 1)"></circle><circle r="5" cx="991.18" cy="516.99" fill="rgba(19, 80, 101, 1)"></circle><circle r="5" cx="1005.98" cy="665.13" fill="rgba(19, 80, 101, 1)"></circle><circle r="5" cx="1116.52" cy="-88.52" fill="rgba(19, 80, 101, 1)"></circle><circle r="5" cx="1152.67" cy="41.5" fill="rgba(19, 80, 101, 1)"></circle><circle r="5" cx="1155.34" cy="219.06" fill="rgba(19, 80, 101, 1)"></circle><circle r="5" cx="1121.82" cy="363.79" fill="rgba(19, 80, 101, 1)"></circle><circle r="5" cx="1098.29" cy="557.1" fill="rgba(19, 80, 101, 1)"></circle><circle r="5" cx="1094.49" cy="658.81" fill="rgba(19, 80, 101, 1)"></circle><circle r="5" cx="1294.09" cy="-63.57" fill="rgba(19, 80, 101, 1)"></circle><circle r="5" cx="1258.82" cy="82.7" fill="rgba(19, 80, 101, 1)"></circle><circle r="5" cx="1266.48" cy="253.79" fill="rgba(19, 80, 101, 1)"></circle><circle r="5" cx="1262.17" cy="343.82" fill="rgba(19, 80, 101, 1)"></circle><circle r="5" cx="1302.83" cy="540.43" fill="rgba(19, 80, 101, 1)"></circle><circle r="5" cx="1304.77" cy="711.46" fill="rgba(19, 80, 101, 1)"></circle><circle r="5" cx="1441.51" cy="107.9" fill="rgba(19, 80, 101, 1)"></circle><circle r="5" cx="1412.9" cy="190.73" fill="rgba(19, 80, 101, 1)"></circle><circle r="5" cx="1428.31" cy="382.84" fill="rgba(19, 80, 101, 1)"></circle><circle r="5" cx="1408.58" cy="488.29" fill="rgba(19, 80, 101, 1)"></circle><circle r="5" cx="1394.42" cy="655.63" fill="rgba(19, 80, 101, 1)"></circle><circle r="5" cx="1579.76" cy="-99.6" fill="rgba(19, 80, 101, 1)"></circle><circle r="5" cx="1555.15" cy="67.17" fill="rgba(19, 80, 101, 1)"></circle><circle r="5" cx="1551.44" cy="220.88" fill="rgba(19, 80, 101, 1)"></circle><circle r="5" cx="1543.37" cy="405.6" fill="rgba(19, 80, 101, 1)"></circle><circle r="5" cx="1594.68" cy="513.12" fill="rgba(19, 80, 101, 1)"></circle><circle r="5" cx="1572.18" cy="693.79" fill="rgba(19, 80, 101, 1)"></circle><path d="M502.51 408.49L502.51 408.49" stroke="hsl(322.70000000000005, 77.2%, 51.5%)" stroke-width="1.5"></path><path d="M502.51 408.49L488.11 552.2" stroke="hsl(322.70000000000005, 77.2%, 51.5%)" stroke-width="1.5"></path><path d="M502.51 408.49L653.65 500.59" stroke="hsl(322.70000000000005, 77.2%, 51.5%)" stroke-width="1.5"></path><path d="M502.51 408.49L387.37 561.93" stroke="hsl(322.70000000000005, 77.2%, 51.5%)" stroke-width="1.5"></path><path d="M488.11 552.2L488.11 552.2" stroke="hsl(322.70000000000005, 77.2%, 51.5%)" stroke-width="1.5"></path><path d="M488.11 552.2L387.37 561.93" stroke="hsl(322.70000000000005, 77.2%, 51.5%)" stroke-width="1.5"></path><path d="M488.11 552.2L539.12 658.46" stroke="hsl(322.70000000000005, 77.2%, 51.5%)" stroke-width="1.5"></path><path d="M539.12 658.46L539.12 658.46" stroke="hsl(322.70000000000005, 77.2%, 51.5%)" stroke-width="1.5"></path><path d="M539.12 658.46L370.55 706.24" stroke="hsl(322.70000000000005, 77.2%, 51.5%)" stroke-width="1.5"></path><path d="M849.34 538.32L849.34 538.32" stroke="hsl(322.70000000000005, 77.2%, 51.5%)" stroke-width="1.5"></path><path d="M849.34 538.32L966.84 542.39" stroke="hsl(322.70000000000005, 77.2%, 51.5%)" stroke-width="1.5"></path><path d="M849.34 538.32L840.01 706.69" stroke="hsl(322.70000000000005, 77.2%, 51.5%)" stroke-width="1.5"></path><path d="M849.34 538.32L959.47 381.62" stroke="hsl(322.70000000000005, 77.2%, 51.5%)" stroke-width="1.5"></path><path d="M849.34 538.32L940.92 711.58" stroke="hsl(322.70000000000005, 77.2%, 51.5%)" stroke-width="1.5"></path><path d="M959.47 381.62L959.47 381.62" stroke="hsl(322.70000000000005, 77.2%, 51.5%)" stroke-width="1.5"></path><path d="M959.47 381.62L815.52 342.17" stroke="hsl(322.70000000000005, 77.2%, 51.5%)" stroke-width="1.5"></path><path d="M959.47 381.62L966.84 542.39" stroke="hsl(322.70000000000005, 77.2%, 51.5%)" stroke-width="1.5"></path><path d="M959.47 381.62L1130.78 405.48" stroke="hsl(322.70000000000005, 77.2%, 51.5%)" stroke-width="1.5"></path><path d="M959.47 381.62L1122.65 509.56" stroke="hsl(322.70000000000005, 77.2%, 51.5%)" stroke-width="1.5"></path><path d="M1432.09 -91.83L1432.09 -91.83" stroke="hsl(322.70000000000005, 77.2%, 51.5%)" stroke-width="1.5"></path><path d="M1432.09 -91.83L1294.47 -55.56" stroke="hsl(322.70000000000005, 77.2%, 51.5%)" stroke-width="1.5"></path><path d="M1432.09 -91.83L1592.82 -52.81" stroke="hsl(322.70000000000005, 77.2%, 51.5%)" stroke-width="1.5"></path><path d="M1432.09 -91.83L1391.89 79.56" stroke="hsl(322.70000000000005, 77.2%, 51.5%)" stroke-width="1.5"></path><path d="M1432.09 -91.83L1307.22 90.98" stroke="hsl(322.70000000000005, 77.2%, 51.5%)" stroke-width="1.5"></path><path d="M1432.09 -91.83L1605.34 57.96" stroke="hsl(322.70000000000005, 77.2%, 51.5%)" stroke-width="1.5"></path><path d="M1432.09 -91.83L1596.82 192.91" stroke="hsl(322.70000000000005, 77.2%, 51.5%)" stroke-width="1.5"></path><path d="M-62.09 555.16L-62.09 555.16" stroke="hsl(322.70000000000005, 77.2%, 51.5%)" stroke-width="1.5"></path><path d="M-62.09 555.16L-38.54 685.3" stroke="hsl(322.70000000000005, 77.2%, 51.5%)" stroke-width="1.5"></path><path d="M-38.54 685.3L-38.54 685.3" stroke="hsl(322.70000000000005, 77.2%, 51.5%)" stroke-width="1.5"></path><path d="M-38.54 685.3L96.52 700.6" stroke="hsl(322.70000000000005, 77.2%, 51.5%)" stroke-width="1.5"></path><path d="M-38.54 685.3L83.79 543.99" stroke="hsl(322.70000000000005, 77.2%, 51.5%)" stroke-width="1.5"></path><path d="M83.79 543.99L83.79 543.99" stroke="hsl(322.70000000000005, 77.2%, 51.5%)" stroke-width="1.5"></path><path d="M83.79 543.99L-62.09 555.16" stroke="hsl(322.70000000000005, 77.2%, 51.5%)" stroke-width="1.5"></path><path d="M83.79 543.99L96.52 700.6" stroke="hsl(322.70000000000005, 77.2%, 51.5%)" stroke-width="1.5"></path><path d="M83.79 543.99L262.43 535.02" stroke="hsl(322.70000000000005, 77.2%, 51.5%)" stroke-width="1.5"></path><path d="M96.52 700.6L96.52 700.6" stroke="hsl(322.70000000000005, 77.2%, 51.5%)" stroke-width="1.5"></path><path d="M96.52 700.6L217.15 665.21" stroke="hsl(322.70000000000005, 77.2%, 51.5%)" stroke-width="1.5"></path><path d="M96.52 700.6L-62.09 555.16" stroke="hsl(322.70000000000005, 77.2%, 51.5%)" stroke-width="1.5"></path><path d="M96.52 700.6L262.43 535.02" stroke="hsl(322.70000000000005, 77.2%, 51.5%)" stroke-width="1.5"></path><path d="M96.52 700.6L370.55 706.24" stroke="hsl(322.70000000000005, 77.2%, 51.5%)" stroke-width="1.5"></path><path d="M262.43 535.02L262.43 535.02" stroke="hsl(322.70000000000005, 77.2%, 51.5%)" stroke-width="1.5"></path><path d="M262.43 535.02L387.37 561.93" stroke="hsl(322.70000000000005, 77.2%, 51.5%)" stroke-width="1.5"></path><path d="M262.43 535.02L217.15 665.21" stroke="hsl(322.70000000000005, 77.2%, 51.5%)" stroke-width="1.5"></path><path d="M262.43 535.02L370.55 706.24" stroke="hsl(322.70000000000005, 77.2%, 51.5%)" stroke-width="1.5"></path><path d="M262.43 535.02L488.11 552.2" stroke="hsl(322.70000000000005, 77.2%, 51.5%)" stroke-width="1.5"></path><path d="M217.15 665.21L217.15 665.21" stroke="hsl(322.70000000000005, 77.2%, 51.5%)" stroke-width="1.5"></path><path d="M217.15 665.21L370.55 706.24" stroke="hsl(322.70000000000005, 77.2%, 51.5%)" stroke-width="1.5"></path><path d="M217.15 665.21L83.79 543.99" stroke="hsl(322.70000000000005, 77.2%, 51.5%)" stroke-width="1.5"></path><path d="M217.15 665.21L387.37 561.93" stroke="hsl(322.70000000000005, 77.2%, 51.5%)" stroke-width="1.5"></path><path d="M387.37 561.93L387.37 561.93" stroke="hsl(322.70000000000005, 77.2%, 51.5%)" stroke-width="1.5"></path><path d="M387.37 561.93L370.55 706.24" stroke="hsl(322.70000000000005, 77.2%, 51.5%)" stroke-width="1.5"></path><path d="M387.37 561.93L539.12 658.46" stroke="hsl(322.70000000000005, 77.2%, 51.5%)" stroke-width="1.5"></path><path d="M370.55 706.24L370.55 706.24" stroke="hsl(322.70000000000005, 77.2%, 51.5%)" stroke-width="1.5"></path><path d="M653.65 500.59L653.65 500.59" stroke="hsl(322.70000000000005, 77.2%, 51.5%)" stroke-width="1.5"></path><path d="M653.65 500.59L488.11 552.2" stroke="hsl(322.70000000000005, 77.2%, 51.5%)" stroke-width="1.5"></path><path d="M653.65 500.59L539.12 658.46" stroke="hsl(322.70000000000005, 77.2%, 51.5%)" stroke-width="1.5"></path><path d="M653.65 500.59L849.34 538.32" stroke="hsl(322.70000000000005, 77.2%, 51.5%)" stroke-width="1.5"></path><path d="M653.65 500.59L709.96 709.43" stroke="hsl(322.70000000000005, 77.2%, 51.5%)" stroke-width="1.5"></path><path d="M653.65 500.59L815.52 342.17" stroke="hsl(322.70000000000005, 77.2%, 51.5%)" stroke-width="1.5"></path><path d="M709.96 709.43L709.96 709.43" stroke="hsl(322.70000000000005, 77.2%, 51.5%)" stroke-width="1.5"></path><path d="M709.96 709.43L840.01 706.69" stroke="hsl(322.70000000000005, 77.2%, 51.5%)" stroke-width="1.5"></path><path d="M709.96 709.43L539.12 658.46" stroke="hsl(322.70000000000005, 77.2%, 51.5%)" stroke-width="1.5"></path><path d="M709.96 709.43L849.34 538.32" stroke="hsl(322.70000000000005, 77.2%, 51.5%)" stroke-width="1.5"></path><path d="M709.96 709.43L940.92 711.58" stroke="hsl(322.70000000000005, 77.2%, 51.5%)" stroke-width="1.5"></path><path d="M709.96 709.43L488.11 552.2" stroke="hsl(322.70000000000005, 77.2%, 51.5%)" stroke-width="1.5"></path><path d="M815.52 342.17L815.52 342.17" stroke="hsl(322.70000000000005, 77.2%, 51.5%)" stroke-width="1.5"></path><path d="M840.01 706.69L840.01 706.69" stroke="hsl(322.70000000000005, 77.2%, 51.5%)" stroke-width="1.5"></path><path d="M840.01 706.69L940.92 711.58" stroke="hsl(322.70000000000005, 77.2%, 51.5%)" stroke-width="1.5"></path><path d="M966.84 542.39L966.84 542.39" stroke="hsl(322.70000000000005, 77.2%, 51.5%)" stroke-width="1.5"></path><path d="M966.84 542.39L1122.65 509.56" stroke="hsl(322.70000000000005, 77.2%, 51.5%)" stroke-width="1.5"></path><path d="M966.84 542.39L940.92 711.58" stroke="hsl(322.70000000000005, 77.2%, 51.5%)" stroke-width="1.5"></path><path d="M940.92 711.58L940.92 711.58" stroke="hsl(322.70000000000005, 77.2%, 51.5%)" stroke-width="1.5"></path><path d="M940.92 711.58L1090.58 678.24" stroke="hsl(322.70000000000005, 77.2%, 51.5%)" stroke-width="1.5"></path><path d="M940.92 711.58L1122.65 509.56" stroke="hsl(322.70000000000005, 77.2%, 51.5%)" stroke-width="1.5"></path><path d="M1136.29 207.85L1136.29 207.85" stroke="hsl(322.70000000000005, 77.2%, 51.5%)" stroke-width="1.5"></path><path d="M1136.29 207.85L1309.2 258.74" stroke="hsl(322.70000000000005, 77.2%, 51.5%)" stroke-width="1.5"></path><path d="M1136.29 207.85L1130.78 405.48" stroke="hsl(322.70000000000005, 77.2%, 51.5%)" stroke-width="1.5"></path><path d="M1136.29 207.85L1271.01 360.92" stroke="hsl(322.70000000000005, 77.2%, 51.5%)" stroke-width="1.5"></path><path d="M1136.29 207.85L1307.22 90.98" stroke="hsl(322.70000000000005, 77.2%, 51.5%)" stroke-width="1.5"></path><path d="M1130.78 405.48L1130.78 405.48" stroke="hsl(322.70000000000005, 77.2%, 51.5%)" stroke-width="1.5"></path><path d="M1130.78 405.48L1122.65 509.56" stroke="hsl(322.70000000000005, 77.2%, 51.5%)" stroke-width="1.5"></path><path d="M1130.78 405.48L1271.01 360.92" stroke="hsl(322.70000000000005, 77.2%, 51.5%)" stroke-width="1.5"></path><path d="M1130.78 405.48L966.84 542.39" stroke="hsl(322.70000000000005, 77.2%, 51.5%)" stroke-width="1.5"></path><path d="M1130.78 405.48L1309.2 258.74" stroke="hsl(322.70000000000005, 77.2%, 51.5%)" stroke-width="1.5"></path><path d="M1122.65 509.56L1122.65 509.56" stroke="hsl(322.70000000000005, 77.2%, 51.5%)" stroke-width="1.5"></path><path d="M1122.65 509.56L1090.58 678.24" stroke="hsl(322.70000000000005, 77.2%, 51.5%)" stroke-width="1.5"></path><path d="M1090.58 678.24L1090.58 678.24" stroke="hsl(322.70000000000005, 77.2%, 51.5%)" stroke-width="1.5"></path><path d="M1090.58 678.24L1271.37 675.15" stroke="hsl(322.70000000000005, 77.2%, 51.5%)" stroke-width="1.5"></path><path d="M1090.58 678.24L966.84 542.39" stroke="hsl(322.70000000000005, 77.2%, 51.5%)" stroke-width="1.5"></path><path d="M1090.58 678.24L1311.24 562.36" stroke="hsl(322.70000000000005, 77.2%, 51.5%)" stroke-width="1.5"></path><path d="M1294.47 -55.56L1294.47 -55.56" stroke="hsl(322.70000000000005, 77.2%, 51.5%)" stroke-width="1.5"></path><path d="M1294.47 -55.56L1307.22 90.98" stroke="hsl(322.70000000000005, 77.2%, 51.5%)" stroke-width="1.5"></path><path d="M1294.47 -55.56L1391.89 79.56" stroke="hsl(322.70000000000005, 77.2%, 51.5%)" stroke-width="1.5"></path><path d="M1307.22 90.98L1307.22 90.98" stroke="hsl(322.70000000000005, 77.2%, 51.5%)" stroke-width="1.5"></path><path d="M1307.22 90.98L1391.89 79.56" stroke="hsl(322.70000000000005, 77.2%, 51.5%)" stroke-width="1.5"></path><path d="M1307.22 90.98L1309.2 258.74" stroke="hsl(322.70000000000005, 77.2%, 51.5%)" stroke-width="1.5"></path><path d="M1309.2 258.74L1309.2 258.74" stroke="hsl(322.70000000000005, 77.2%, 51.5%)" stroke-width="1.5"></path><path d="M1309.2 258.74L1271.01 360.92" stroke="hsl(322.70000000000005, 77.2%, 51.5%)" stroke-width="1.5"></path><path d="M1309.2 258.74L1459.27 352.5" stroke="hsl(322.70000000000005, 77.2%, 51.5%)" stroke-width="1.5"></path><path d="M1271.01 360.92L1271.01 360.92" stroke="hsl(322.70000000000005, 77.2%, 51.5%)" stroke-width="1.5"></path><path d="M1311.24 562.36L1311.24 562.36" stroke="hsl(322.70000000000005, 77.2%, 51.5%)" stroke-width="1.5"></path><path d="M1311.24 562.36L1271.37 675.15" stroke="hsl(322.70000000000005, 77.2%, 51.5%)" stroke-width="1.5"></path><path d="M1311.24 562.36L1454.75 559.34" stroke="hsl(322.70000000000005, 77.2%, 51.5%)" stroke-width="1.5"></path><path d="M1311.24 562.36L1122.65 509.56" stroke="hsl(322.70000000000005, 77.2%, 51.5%)" stroke-width="1.5"></path><path d="M1311.24 562.36L1271.01 360.92" stroke="hsl(322.70000000000005, 77.2%, 51.5%)" stroke-width="1.5"></path><path d="M1311.24 562.36L1454.6 709.65" stroke="hsl(322.70000000000005, 77.2%, 51.5%)" stroke-width="1.5"></path><path d="M1271.37 675.15L1271.37 675.15" stroke="hsl(322.70000000000005, 77.2%, 51.5%)" stroke-width="1.5"></path><path d="M1391.89 79.56L1391.89 79.56" stroke="hsl(322.70000000000005, 77.2%, 51.5%)" stroke-width="1.5"></path><path d="M1459.27 352.5L1459.27 352.5" stroke="hsl(322.70000000000005, 77.2%, 51.5%)" stroke-width="1.5"></path><path d="M1459.27 352.5L1583.2 353.42" stroke="hsl(322.70000000000005, 77.2%, 51.5%)" stroke-width="1.5"></path><path d="M1459.27 352.5L1271.01 360.92" stroke="hsl(322.70000000000005, 77.2%, 51.5%)" stroke-width="1.5"></path><path d="M1459.27 352.5L1454.75 559.34" stroke="hsl(322.70000000000005, 77.2%, 51.5%)" stroke-width="1.5"></path><path d="M1459.27 352.5L1596.82 192.91" stroke="hsl(322.70000000000005, 77.2%, 51.5%)" stroke-width="1.5"></path><path d="M1454.75 559.34L1454.75 559.34" stroke="hsl(322.70000000000005, 77.2%, 51.5%)" stroke-width="1.5"></path><path d="M1454.6 709.65L1454.6 709.65" stroke="hsl(322.70000000000005, 77.2%, 51.5%)" stroke-width="1.5"></path><path d="M1454.6 709.65L1582.18 697.54" stroke="hsl(322.70000000000005, 77.2%, 51.5%)" stroke-width="1.5"></path><path d="M1454.6 709.65L1454.75 559.34" stroke="hsl(322.70000000000005, 77.2%, 51.5%)" stroke-width="1.5"></path><path d="M1454.6 709.65L1271.37 675.15" stroke="hsl(322.70000000000005, 77.2%, 51.5%)" stroke-width="1.5"></path><path d="M1454.6 709.65L1608.52 511.45" stroke="hsl(322.70000000000005, 77.2%, 51.5%)" stroke-width="1.5"></path><path d="M1454.6 709.65L1459.27 352.5" stroke="hsl(322.70000000000005, 77.2%, 51.5%)" stroke-width="1.5"></path><path d="M1592.82 -52.81L1592.82 -52.81" stroke="hsl(322.70000000000005, 77.2%, 51.5%)" stroke-width="1.5"></path><path d="M1592.82 -52.81L1605.34 57.96" stroke="hsl(322.70000000000005, 77.2%, 51.5%)" stroke-width="1.5"></path><path d="M1592.82 -52.81L1391.89 79.56" stroke="hsl(322.70000000000005, 77.2%, 51.5%)" stroke-width="1.5"></path><path d="M1605.34 57.96L1605.34 57.96" stroke="hsl(322.70000000000005, 77.2%, 51.5%)" stroke-width="1.5"></path><path d="M1605.34 57.96L1596.82 192.91" stroke="hsl(322.70000000000005, 77.2%, 51.5%)" stroke-width="1.5"></path><path d="M1605.34 57.96L1391.89 79.56" stroke="hsl(322.70000000000005, 77.2%, 51.5%)" stroke-width="1.5"></path><path d="M1605.34 57.96L1583.2 353.42" stroke="hsl(322.70000000000005, 77.2%, 51.5%)" stroke-width="1.5"></path><path d="M1596.82 192.91L1596.82 192.91" stroke="hsl(322.70000000000005, 77.2%, 51.5%)" stroke-width="1.5"></path><path d="M1596.82 192.91L1583.2 353.42" stroke="hsl(322.70000000000005, 77.2%, 51.5%)" stroke-width="1.5"></path><path d="M1583.2 353.42L1583.2 353.42" stroke="hsl(322.70000000000005, 77.2%, 51.5%)" stroke-width="1.5"></path><path d="M1583.2 353.42L1608.52 511.45" stroke="hsl(322.70000000000005, 77.2%, 51.5%)" stroke-width="1.5"></path><path d="M1608.52 511.45L1608.52 511.45" stroke="hsl(322.70000000000005, 77.2%, 51.5%)" stroke-width="1.5"></path><path d="M1608.52 511.45L1454.75 559.34" stroke="hsl(322.70000000000005, 77.2%, 51.5%)" stroke-width="1.5"></path><path d="M1582.18 697.54L1582.18 697.54" stroke="hsl(322.70000000000005, 77.2%, 51.5%)" stroke-width="1.5"></path><path d="M1582.18 697.54L1608.52 511.45" stroke="hsl(322.70000000000005, 77.2%, 51.5%)" stroke-width="1.5"></path><path d="M1582.18 697.54L1454.75 559.34" stroke="hsl(322.70000000000005, 77.2%, 51.5%)" stroke-width="1.5"></path><circle r="25" cx="502.51" cy="408.49" fill="url(#SvgjsRadialGradient1498)"></circle><circle r="25" cx="488.11" cy="552.2" fill="url(#SvgjsRadialGradient1498)"></circle><circle r="25" cx="539.12" cy="658.46" fill="url(#SvgjsRadialGradient1498)"></circle><circle r="25" cx="849.34" cy="538.32" fill="url(#SvgjsRadialGradient1498)"></circle><circle r="25" cx="959.47" cy="381.62" fill="url(#SvgjsRadialGradient1498)"></circle><circle r="25" cx="1432.09" cy="-91.83" fill="url(#SvgjsRadialGradient1498)"></circle><circle r="5" cx="-62.09" cy="555.16" fill="#d98bbc"></circle><circle r="5" cx="-38.54" cy="685.3" fill="#d98bbc"></circle><circle r="5" cx="83.79" cy="543.99" fill="#d98bbc"></circle><circle r="5" cx="96.52" cy="700.6" fill="#d98bbc"></circle><circle r="5" cx="262.43" cy="535.02" fill="#d98bbc"></circle><circle r="5" cx="217.15" cy="665.21" fill="#d98bbc"></circle><circle r="5" cx="387.37" cy="561.93" fill="#d98bbc"></circle><circle r="5" cx="370.55" cy="706.24" fill="#d98bbc"></circle><circle r="5" cx="653.65" cy="500.59" fill="#d98bbc"></circle><circle r="5" cx="709.96" cy="709.43" fill="#d98bbc"></circle><circle r="5" cx="815.52" cy="342.17" fill="#d98bbc"></circle><circle r="5" cx="840.01" cy="706.69" fill="#d98bbc"></circle><circle r="5" cx="966.84" cy="542.39" fill="#d98bbc"></circle><circle r="5" cx="940.92" cy="711.58" fill="#d98bbc"></circle><circle r="5" cx="1136.29" cy="207.85" fill="#d98bbc"></circle><circle r="5" cx="1130.78" cy="405.48" fill="#d98bbc"></circle><circle r="5" cx="1122.65" cy="509.56" fill="#d98bbc"></circle><circle r="5" cx="1090.58" cy="678.24" fill="#d98bbc"></circle><circle r="5" cx="1294.47" cy="-55.56" fill="#d98bbc"></circle><circle r="5" cx="1307.22" cy="90.98" fill="#d98bbc"></circle><circle r="5" cx="1309.2" cy="258.74" fill="#d98bbc"></circle><circle r="5" cx="1271.01" cy="360.92" fill="#d98bbc"></circle><circle r="5" cx="1311.24" cy="562.36" fill="#d98bbc"></circle><circle r="5" cx="1271.37" cy="675.15" fill="#d98bbc"></circle><circle r="5" cx="1391.89" cy="79.56" fill="#d98bbc"></circle><circle r="5" cx="1459.27" cy="352.5" fill="#d98bbc"></circle><circle r="5" cx="1454.75" cy="559.34" fill="#d98bbc"></circle><circle r="5" cx="1454.6" cy="709.65" fill="#d98bbc"></circle><circle r="5" cx="1592.82" cy="-52.81" fill="#d98bbc"></circle><circle r="5" cx="1605.34" cy="57.96" fill="#d98bbc"></circle><circle r="5" cx="1596.82" cy="192.91" fill="#d98bbc"></circle><circle r="5" cx="1583.2" cy="353.42" fill="#d98bbc"></circle><circle r="5" cx="1608.52" cy="511.45" fill="#d98bbc"></circle><circle r="5" cx="1582.18" cy="697.54" fill="#d98bbc"></circle></g><defs><mask id="SvgjsMask1496"><rect width="1440" height="560" fill="#ffffff"></rect></mask><linearGradient x1="15.28%" y1="-39.29%" x2="84.72%" y2="139.29%" gradientUnits="userSpaceOnUse" id="SvgjsLinearGradient1497"><stop stop-color="#0e2a47" offset="0"></stop><stop stop-color="rgba(137, 0, 158, 1)" offset="0.6"></stop></linearGradient><radialGradient id="SvgjsRadialGradient1498"><stop stop-color="#ffffff" offset="0.1"></stop><stop stop-color="rgba(179, 23, 120, 1)" offset="0.2"></stop><stop stop-color="rgba(179, 23, 120, 0)" offset="1"></stop></radialGradient></defs></svg>